<svg id="Layer_1" data-name="Layer 1" xmlns="http://www.w3.org/2000/svg" viewBox="0 0 1514.23 164.77"><defs><style>.cls-1{fill:#555;}.cls-2{fill:#00b4ff;}</style></defs><title>synchronicity_logo</title><path class="cls-1" d="M237.91,165.45a6.13,6.13,0,0,1-6.31-6.09h0c-.21-.21-.21-8.48-4.78-16.3-5.65-10-16.09-15.43-30.43-15.43-28.7,0-34.78,17.39-34.78,31.52,0,12.82,4.56,28.69,26.95,31.52a6.23,6.23,0,0,1-.87,12.39,1.31,1.31,0,0,1-.87-.22q-13-1.31-21.52-7.82a35.79,35.79,0,0,1-11.52-13.92C149,171.76,149,162.41,149,159.15a61.44,61.44,0,0,1,.65-9.35,44.35,44.35,0,0,1,5.44-15,38,38,0,0,1,14.78-13.91c6.95-3.48,16.08-5.65,26.52-5.65,24.13,0,35.87,12,41.52,22A51,51,0,0,1,244,158.93v.22a6.26,6.26,0,0,1-6.08,6.3ZM244,237.19c0,3.91,0,14.13-5.87,23.91-3.69,5.87-8.91,10-15.21,13.26-6.74,3.26-15.87,5.22-26.31,5.22-24.34,0-36.08-11.52-41.51-21.09a49.07,49.07,0,0,1-6.09-21.3,6.5,6.5,0,0,1,6.3-6.53,6.66,6.66,0,0,1,6.31,6.53A32.74,32.74,0,0,0,166,252.4c5.87,10,15.86,14.79,30.64,14.79,23.48,0,34.79-10,34.79-30,0-18.48-8-29.56-24.35-32.61a6,6,0,0,1-4.78-7.39c.65-3.48,3.69-5.44,7.39-4.78a39.58,39.58,0,0,1,19.56,8.91,34.1,34.1,0,0,1,10.65,13.91c4.13,9.35,4.13,18.48,4.13,22Z" transform="translate(-149 -115.02)"/><path class="cls-1" d="M282.89,160l-23.48-34.35a6.22,6.22,0,0,1,1.3-8.69,6.72,6.72,0,0,1,8.91,1.52l23.48,34.34a6.25,6.25,0,0,1-1.52,8.7,7.25,7.25,0,0,1-3.48,1.09,6.8,6.8,0,0,1-5.21-2.61Zm26.95,112.82V199.15L297.45,181.1a6.19,6.19,0,0,1,1.52-8.47,6,6,0,0,1,8.7,1.52l8.26,12.17,46.52-67.82a6.45,6.45,0,0,1,8.69-1.52,6.29,6.29,0,0,1,1.74,8.69l-50.65,73.48v73.69a6.2,6.2,0,0,1-12.39,0Z" transform="translate(-149 -115.02)"/><path class="cls-1" d="M389.6,272.62V122.19a6.33,6.33,0,0,1,4.35-6.08c2.61-.66,5.65.21,7,2.6l44.34,64.35a6.68,6.68,0,0,1-1.52,8.69A6.12,6.12,0,0,1,435,190l-33-47.83V272.62a6.13,6.13,0,0,1-6.09,6.3,6.31,6.31,0,0,1-6.3-6.3Zm104.34,3.47L450,212.19a6.21,6.21,0,0,1,1.74-8.48,5.67,5.67,0,0,1,8.48,1.52l32.61,47.39V122.19a6.2,6.2,0,1,1,12.39,0V272.62a6.31,6.31,0,0,1-4.35,6.08c-.65,0-1.31.22-2,.22a5.56,5.56,0,0,1-5-2.83Z" transform="translate(-149 -115.02)"/><path class="cls-1" d="M631.09,171.54a51.3,51.3,0,0,0-1.52-10.87,40.82,40.82,0,0,0-11.09-20.22c-8.48-8.69-20.65-12.82-36.52-12.82-45.87,0-49.56,35.87-49.56,69.78,0,11.52,0,30,6.52,45,7.39,16.74,21.52,24.79,43,24.79,20.65,0,35.22-7.4,43-22.18a52.28,52.28,0,0,0,6.09-22.61,6.31,6.31,0,0,1,6.52-6.08,5.94,5.94,0,0,1,6.09,6.08,65.49,65.49,0,0,1-7.61,28.7c-7.18,13-22.18,28.69-54.13,28.69-14.13,0-26.08-3-35.43-9.13-8-5.65-14.35-13.26-19.13-23.26-7.61-17.17-7.61-37.6-7.61-50,0-13.26,0-33,7.39-50a56.44,56.44,0,0,1,19.13-23.26c9.35-6.09,21.3-9.13,35.65-9.13,19.35,0,34.78,5.65,45.65,16.52,15.87,16.3,16.09,38.26,16.09,40v.22a5.94,5.94,0,0,1-6.09,6.08,6.35,6.35,0,0,1-6.52-6.3Z" transform="translate(-149 -115.02)"/><path class="cls-1" d="M765,272.62V203.93H674.11a6.27,6.27,0,0,1-6.09-6.31V122.19a6.2,6.2,0,1,1,12.39,0v69.13h90.87a6.26,6.26,0,0,1,6.08,6.3v75a6.2,6.2,0,1,1-12.39,0Zm-97,0v-50a6.2,6.2,0,0,1,12.39,0v50a6.2,6.2,0,1,1-12.39,0Zm97-100.43v-50a6.2,6.2,0,1,1,12.39,0v50a6.2,6.2,0,0,1-12.39,0Z" transform="translate(-149 -115.02)"/><path class="cls-1" d="M920.16,277.18a5.56,5.56,0,0,1-4.35,1.74,5.33,5.33,0,0,1-4.34-2.17l-44.78-48H814.3v44.13a6.42,6.42,0,0,1-6.31,6.08,6.26,6.26,0,0,1-6.3-6.08V122.19a6.3,6.3,0,0,1,6.3-6.3h53c1.53,0,24.79.22,41.31,16.52q15,14.67,15,39.78c0,10.65-1.74,20.22-5.22,28a50.18,50.18,0,0,1-12.83,17.18,6.67,6.67,0,0,1-8.91-.66c-2.17-2.61-1.52-6.74.87-8.91,9.13-7.61,13.48-19.56,13.48-35.65,0-13-3.7-23.69-11.09-31.08-6.74-6.53-15-9.57-20.87-11.09A59.12,59.12,0,0,0,861,128.5H814.3v87.6h55.43a6.7,6.7,0,0,1,4.35,2l46.52,50.43a6.17,6.17,0,0,1-.44,8.69Z" transform="translate(-149 -115.02)"/><path class="cls-1" d="M948.39,260.45c-11.08-13.27-16.52-33.92-16.52-63,0-14.79,1.31-26.74,3.7-37.17,2.39-10.66,6.09-19.35,11.51-25.87a48.26,48.26,0,0,1,20.44-14.78c7.61-3,16.74-4.35,27.39-4.35s20,1.52,27.61,5.22A48.27,48.27,0,0,1,1043,136.11c9.78,13.47,14.57,33.47,14.57,61.3a157.68,157.68,0,0,1-3.7,35.65c-2.61,10-6.74,18.91-12.39,25.87-10.43,13.69-26.09,20.65-46.52,20.65-21.08,0-36.3-6.31-46.52-19.13Zm8.26-118.26c-8.26,10.87-12.38,28.91-12.38,55.22,0,26.08,4.56,43.91,13.25,55.21,7.83,9.78,20.22,14.35,37.39,14.35,16.74,0,28.91-5.22,37.18-16.09,8.47-11.52,13-29.56,13-53.47,0-24.78-3.91-42.18-11.95-53.48-8-10.87-20.44-16.08-38.26-16.08-18.48,0-30.65,4.56-38.26,14.34Z" transform="translate(-149 -115.02)"/><path class="cls-1" d="M1075.54,272.62V122.19a6.33,6.33,0,0,1,4.35-6.08c2.6-.66,5.65.21,6.95,2.6l44.35,64.35a6.69,6.69,0,0,1-1.52,8.69A6.12,6.12,0,0,1,1121,190l-33-47.83V272.62a6.13,6.13,0,0,1-6.09,6.3,6.31,6.31,0,0,1-6.3-6.3Zm104.34,3.47L1136,212.19a6.2,6.2,0,0,1,1.74-8.48,5.67,5.67,0,0,1,8.48,1.52l32.6,47.39V122.19a6.2,6.2,0,1,1,12.4,0V272.62a6.32,6.32,0,0,1-4.35,6.08c-.66,0-1.31.22-2,.22a5.54,5.54,0,0,1-5-2.83Z" transform="translate(-149 -115.02)"/><path class="cls-1" d="M1206.38,272.62V122.19a6.2,6.2,0,1,1,12.39,0V272.62a6.2,6.2,0,1,1-12.39,0Z" transform="translate(-149 -115.02)"/><path class="cls-2" d="M1350.93,171.54a51.3,51.3,0,0,0-1.52-10.87,40.82,40.82,0,0,0-11.09-20.22c-8.48-8.69-20.65-12.82-36.52-12.82-45.87,0-49.56,35.87-49.56,69.78,0,11.52,0,30,6.52,45,7.39,16.74,21.52,24.79,43,24.79,20.65,0,35.21-7.4,43-22.18a52.28,52.28,0,0,0,6.09-22.61,6.31,6.31,0,0,1,6.52-6.08,5.94,5.94,0,0,1,6.09,6.08,65.49,65.49,0,0,1-7.61,28.7c-7.18,13-22.18,28.69-54.13,28.69-14.13,0-26.09-3-35.43-9.13-8-5.65-14.35-13.26-19.13-23.26-7.61-17.17-7.61-37.6-7.61-50,0-13.26,0-33,7.39-50a56.44,56.44,0,0,1,19.13-23.26c9.35-6.09,21.3-9.13,35.65-9.13,19.35,0,34.78,5.65,45.65,16.52,15.87,16.3,16.09,38.26,16.09,40v.22a5.94,5.94,0,0,1-6.09,6.08,6.35,6.35,0,0,1-6.52-6.3Z" transform="translate(-149 -115.02)"/><path class="cls-2" d="M1382.43,272.62V122.19a6.2,6.2,0,1,1,12.39,0V272.62a6.2,6.2,0,1,1-12.39,0Z" transform="translate(-149 -115.02)"/><path class="cls-2" d="M1422.64,128.28a6.2,6.2,0,1,1,0-12.39h103a6.2,6.2,0,1,1,0,12.39Zm45,144.34V143.72a6.13,6.13,0,0,1,6.31-6.09,6.27,6.27,0,0,1,6.3,6.09v128.9a6.31,6.31,0,0,1-6.3,6.3,6.18,6.18,0,0,1-6.31-6.3Z" transform="translate(-149 -115.02)"/><path class="cls-2" d="M1572.17,160l-23.48-34.35A6.21,6.21,0,0,1,1550,117a6.73,6.73,0,0,1,8.91,1.52l23.48,34.34a6.27,6.27,0,0,1-1.52,8.7,7.25,7.25,0,0,1-3.48,1.09,6.82,6.82,0,0,1-5.22-2.61Zm27,112.82V199.15l-12.39-18.05a6.18,6.18,0,0,1,1.52-8.47,6,6,0,0,1,8.69,1.52l8.27,12.17,46.51-67.82a6.46,6.46,0,0,1,8.7-1.52,6.3,6.3,0,0,1,1.74,8.69l-50.65,73.48v73.69a6.2,6.2,0,0,1-12.39,0Z" transform="translate(-149 -115.02)"/></svg>